STARTFONT 2.1
FONT -FontForge-Helvetica Neue-Bold-R-Normal--24-240-75-75-P-127-ISO10646-1
SIZE 24 75 75
FONTBOUNDINGBOX 24 24 -1 -5
COMMENT "Generated by fontforge, http://fontforge.sourceforge.net"
COMMENT "Copyright (c) 1981, 1982, 1983, 1989 and 1993, Linotype Library GmbH or its affiliated Linotype-Hell companies. All rights reserved."
COMMENT ""
COMMENT "The digitally encoded machine readable software for producing the Typefaces licensed to you is now the property of Heidelberger Druckmaschinen AG and its licensors, and may not be reproduced, used, displayed, modified, disclosed or transferred without the express written approval of Heidelberger Druckmaschinen AG."
COMMENT ""
COMMENT "Copyright (c) 1988, 1990, 1993 Adobe Systems Incorporated. All Rights Reserved."
STARTPROPERTIES 39
FOUNDRY "FontForge"
FAMILY_NAME "Helvetica Neue"
WEIGHT_NAME "Bold"
SLANT "R"
SETWIDTH_NAME "Normal"
ADD_STYLE_NAME ""
PIXEL_SIZE 24
POINT_SIZE 240
RESOLUTION_X 75
RESOLUTION_Y 75
SPACING "P"
AVERAGE_WIDTH 127
CHARSET_REGISTRY "ISO10646"
CHARSET_ENCODING "1"
FONTNAME_REGISTRY ""
CHARSET_COLLECTIONS "ISO8859-5 ISO10646-1"
FONT_NAME "HelveticaNeue-Bold"
FACE_NAME "Helvetica Neue Bold"
COPYRIGHT "Copyright (c) 1981, 1982, 1983, 1989 and 1993, Linotype Library GmbH or its affiliated Linotype-Hell companies. All rights reserved."
FONT_VERSION "6.1d8e1"
FONT_ASCENT 19
FONT_DESCENT 5
UNDERLINE_POSITION -3
UNDERLINE_THICKNESS 2
X_HEIGHT 11
CAP_HEIGHT 16
RAW_ASCENT 800
RAW_DESCENT 200
NORM_SPACE 7
RELATIVE_WEIGHT 70
RELATIVE_SETWIDTH 50
SUPERSCRIPT_X 0
SUPERSCRIPT_Y 6
SUPERSCRIPT_SIZE 4
SUBSCRIPT_X 0
SUBSCRIPT_Y 6
SUBSCRIPT_SIZE 4
AVG_LOWERCASE_WIDTH 128
AVG_UPPERCASE_WIDTH 166
ENDPROPERTIES
CHARS 99
STARTCHAR controlBS
ENCODING 8
SWIDTH 0 0
DWIDTH 0 0
BBX 1 1 0 0
BITMAP
00
ENDCHAR
STARTCHAR controlHT
ENCODING 9
SWIDTH 278 0
DWIDTH 7 0
BBX 1 1 0 0
BITMAP
00
ENDCHAR
STARTCHAR controlCR
ENCODING 13
SWIDTH 278 0
DWIDTH 7 0
BBX 1 1 0 0
BITMAP
00
ENDCHAR
STARTCHAR controlGS
ENCODING 29
SWIDTH 0 0
DWIDTH 0 0
BBX 1 1 0 0
BITMAP
00
ENDCHAR
STARTCHAR space
ENCODING 32
SWIDTH 278 0
DWIDTH 7 0
BBX 1 1 0 0
BITMAP
00
ENDCHAR
STARTCHAR exclam
ENCODING 33
SWIDTH 278 0
DWIDTH 7 0
BBX 4 17 1 0
BITMAP
F0
F0
F0
F0
F0
F0
F0
F0
60
60
60
60
00
F0
F0
F0
F0
ENDCHAR
STARTCHAR quotedbl
ENCODING 34
SWIDTH 463 0
DWIDTH 11 0
BBX 7 8 2 9
BITMAP
EE
EE
EE
EE
EE
EE
EE
EE
ENDCHAR
STARTCHAR numbersign
ENCODING 35
SWIDTH 556 0
DWIDTH 13 0
BBX 12 17 1 0
BITMAP
1CC0
1CC0
18C0
18C0
18C0
7FF0
7FF0
3980
3980
3180
FFE0
FFE0
3380
3380
7300
7300
7300
ENDCHAR
STARTCHAR dollar
ENCODING 36
SWIDTH 556 0
DWIDTH 12 0
BBX 13 21 0 -2
BITMAP
0200
0F80
3FE0
7FF0
F2F0
E270
E200
F200
7F00
3FE0
0FF0
03F8
0278
E238
E238
7278
7FF0
3FE0
0F80
0200
0200
ENDCHAR
STARTCHAR percent
ENCODING 37
SWIDTH 1000 0
DWIDTH 24 0
BBX 20 18 2 -1
BITMAP
3C0300
7E0600
E70600
C30C00
C30C00
C31800
E73000
7E3000
3C63C0
0067E0
00CE70
00CC30
018C30
018C30
030E70
0307E0
0603C0
0E0000
ENDCHAR
STARTCHAR ampersand
ENCODING 38
SWIDTH 685 0
DWIDTH 16 0
BBX 16 17 1 0
BITMAP
0F80
1FC0
38E0
38E0
38E0
3DE0
1FC0
1F80
3F00
739C
E1F8
E0F8
E0F0
F1F8
7FFC
7FBE
1F1F
ENDCHAR
STARTCHAR quotesingle
ENCODING 39
SWIDTH 278 0
DWIDTH 7 0
BBX 3 8 2 9
BITMAP
E0
E0
E0
E0
E0
E0
E0
E0
ENDCHAR
STARTCHAR parenleft
ENCODING 40
SWIDTH 296 0
DWIDTH 7 0
BBX 6 22 1 -4
BITMAP
3C
38
30
70
70
70
E0
E0
E0
E0
E0
E0
E0
E0
E0
E0
70
70
70
30
38
3C
ENDCHAR
STARTCHAR parenright
ENCODING 41
SWIDTH 296 0
DWIDTH 7 0
BBX 6 22 0 -4
BITMAP
E0
70
70
38
38
38
1C
1C
1C
1C
1C
1C
1C
1C
1C
1C
38
38
38
70
70
F0
ENDCHAR
STARTCHAR asterisk
ENCODING 42
SWIDTH 407 0
DWIDTH 10 0
BBX 8 8 1 9
BITMAP
18
18
DB
FF
3C
3C
66
24
ENDCHAR
STARTCHAR plus
ENCODING 43
SWIDTH 600 0
DWIDTH 14 0
BBX 13 12 1 0
BITMAP
0700
0700
0700
0700
FFF8
FFF8
FFF8
0700
0700
0700
0700
0700
ENDCHAR
STARTCHAR comma
ENCODING 44
SWIDTH 278 0
DWIDTH 6 0
BBX 4 8 1 -4
BITMAP
F0
F0
F0
F0
30
70
E0
C0
ENDCHAR
STARTCHAR hyphen
ENCODING 45
SWIDTH 407 0
DWIDTH 10 0
BBX 8 3 1 5
BITMAP
FF
FF
FF
ENDCHAR
STARTCHAR period
ENCODING 46
SWIDTH 278 0
DWIDTH 6 0
BBX 4 4 1 0
BITMAP
F0
F0
F0
F0
ENDCHAR
STARTCHAR slash
ENCODING 47
SWIDTH 371 0
DWIDTH 9 0
BBX 9 18 0 0
BITMAP
0380
0380
0300
0700
0600
0E00
0E00
0C00
1C00
1C00
1800
3800
3800
7000
7000
6000
E000
E000
ENDCHAR
STARTCHAR zero
ENCODING 48
SWIDTH 556 0
DWIDTH 13 0
BBX 11 17 1 0
BITMAP
1F00
3F80
7FC0
71C0
E1E0
E0E0
E0E0
E0E0
E0E0
E0E0
E0E0
E0E0
F1E0
71C0
7FC0
3F80
1F00
ENDCHAR
STARTCHAR one
ENCODING 49
SWIDTH 556 0
DWIDTH 13 0
BBX 7 17 2 0
BITMAP
0E
0E
1E
FE
FE
FE
0E
0E
0E
0E
0E
0E
0E
0E
0E
0E
0E
ENDCHAR
STARTCHAR two
ENCODING 50
SWIDTH 556 0
DWIDTH 13 0
BBX 12 17 0 0
BITMAP
0F80
1FE0
3FE0
38F0
7070
7070
7070
00F0
01E0
03C0
0F80
1E00
3C00
7800
7FF0
FFF0
FFF0
ENDCHAR
STARTCHAR three
ENCODING 51
SWIDTH 556 0
DWIDTH 14 0
BBX 12 17 1 0
BITMAP
1F00
3FC0
7FC0
F1E0
E0E0
E0E0
01C0
0F80
0FC0
01E0
00F0
E0F0
E0F0
F1F0
7FE0
3FC0
1F80
ENDCHAR
STARTCHAR four
ENCODING 52
SWIDTH 556 0
DWIDTH 14 0
BBX 12 17 1 0
BITMAP
01C0
03C0
07C0
07C0
0FC0
1DC0
39C0
31C0
71C0
E1C0
FFF0
FFF0
FFF0
01C0
01C0
01C0
01C0
ENDCHAR
STARTCHAR five
ENCODING 53
SWIDTH 556 0
DWIDTH 14 0
BBX 12 17 1 0
BITMAP
3FE0
3FE0
3FE0
7000
7000
7780
7FE0
7FE0
70F0
8070
0070
E070
F070
F0E0
7FE0
3FC0
1F80
ENDCHAR
STARTCHAR six
ENCODING 54
SWIDTH 556 0
DWIDTH 14 0
BBX 12 17 1 0
BITMAP
0F80
1FE0
3FE0
78F0
7070
E780
EFC0
FFE0
F8F0
F070
F070
F070
F070
78E0
7FE0
3FC0
0F80
ENDCHAR
STARTCHAR seven
ENCODING 55
SWIDTH 556 0
DWIDTH 13 0
BBX 12 17 1 0
BITMAP
FFF0
FFF0
FFF0
00E0
01C0
0380
0380
0700
0F00
0E00
0E00
1E00
1E00
1C00
3C00
3C00
3C00
ENDCHAR
STARTCHAR eight
ENCODING 56
SWIDTH 556 0
DWIDTH 13 0
BBX 11 18 1 -1
BITMAP
0F00
3FC0
7FE0
79E0
70E0
70E0
79C0
3F80
3FC0
71C0
E0E0
E0E0
E0E0
E0E0
F1E0
7FC0
3F80
1F00
ENDCHAR
STARTCHAR nine
ENCODING 57
SWIDTH 556 0
DWIDTH 14 0
BBX 12 18 1 -1
BITMAP
1F00
3FC0
7FC0
71E0
E0E0
E0F0
E0F0
E0F0
F1F0
7FF0
3F70
1E70
00F0
E0E0
F1E0
7FC0
7F80
1F00
ENDCHAR
STARTCHAR colon
ENCODING 58
SWIDTH 278 0
DWIDTH 6 0
BBX 4 12 1 0
BITMAP
F0
F0
F0
F0
00
00
00
00
F0
F0
F0
F0
ENDCHAR
STARTCHAR semicolon
ENCODING 59
SWIDTH 278 0
DWIDTH 6 0
BBX 4 16 1 -4
BITMAP
F0
F0
F0
F0
00
00
00
00
F0
F0
F0
F0
30
70
E0
C0
ENDCHAR
STARTCHAR less
ENCODING 60
SWIDTH 600 0
DWIDTH 14 0
BBX 12 12 1 0
BITMAP
0010
00F0
03F0
1FC0
7E00
F800
F800
FE00
1FC0
03F0
00F0
0010
ENDCHAR
STARTCHAR equal
ENCODING 61
SWIDTH 600 0
DWIDTH 14 0
BBX 12 8 1 2
BITMAP
FFF0
FFF0
FFF0
0000
0000
FFF0
FFF0
FFF0
ENDCHAR
STARTCHAR greater
ENCODING 62
SWIDTH 600 0
DWIDTH 14 0
BBX 12 12 1 0
BITMAP
8000
F000
FE00
3F80
07F0
00F0
00F0
07F0
3F80
FE00
F000
8000
ENDCHAR
STARTCHAR question
ENCODING 63
SWIDTH 556 0
DWIDTH 14 0
BBX 12 18 1 0
BITMAP
1F80
3FC0
7FE0
79F0
F0F0
F0F0
00F0
01E0
07C0
0780
0F00
0E00
0E00
0000
0F00
0F00
0F00
0F00
ENDCHAR
STARTCHAR at
ENCODING 64
SWIDTH 800 0
DWIDTH 19 0
BBX 17 18 1 0
BITMAP
03F000
0FFC00
1C1E00
300700
600300
61EF80
C3F980
C73980
CE1980
CC1980
CC1180
CC3300
6E7600
67FE00
33B800
1C0F00
0FFC00
03F000
ENDCHAR
STARTCHAR A
ENCODING 65
SWIDTH 685 0
DWIDTH 16 0
BBX 17 17 0 0
BITMAP
03C000
03E000
07E000
07F000
07F000
0F7000
0E7800
1E7800
1E3800
1C3C00
3FFC00
3FFE00
3FFE00
780E00
700F00
F00F00
F00780
ENDCHAR
STARTCHAR B
ENCODING 66
SWIDTH 704 0
DWIDTH 17 0
BBX 14 17 2 0
BITMAP
FFE0
FFF0
FFF8
F0F8
F078
F078
F0F0
FFE0
FFF0
FFF8
F07C
F03C
F03C
F07C
FFF8
FFF8
FFE0
ENDCHAR
STARTCHAR C
ENCODING 67
SWIDTH 741 0
DWIDTH 18 0
BBX 16 17 1 0
BITMAP
03F0
0FFC
3FFE
7C1E
780F
F80F
F000
F000
F000
F000
F00F
F80F
780F
7C1E
3FFE
1FFC
03F0
ENDCHAR
STARTCHAR D
ENCODING 68
SWIDTH 741 0
DWIDTH 18 0
BBX 15 17 2 0
BITMAP
FFC0
FFF0
FFF8
F07C
F03C
F03E
F01E
F01E
F01E
F01E
F01E
F01E
F03C
F07C
FFF8
FFF0
FFC0
ENDCHAR
STARTCHAR E
ENCODING 69
SWIDTH 648 0
DWIDTH 16 0
BBX 13 17 2 0
BITMAP
FFF8
FFF8
FFF8
F000
F000
F000
F000
FFF0
FFF0
FFF0
F000
F000
F000
F000
FFF8
FFF8
FFF8
ENDCHAR
STARTCHAR F
ENCODING 70
SWIDTH 593 0
DWIDTH 14 0
BBX 12 17 2 0
BITMAP
FFF0
FFF0
FFF0
F000
F000
F000
F000
FFE0
FFE0
FFE0
F000
F000
F000
F000
F000
F000
F000
ENDCHAR
STARTCHAR G
ENCODING 71
SWIDTH 759 0
DWIDTH 18 0
BBX 16 17 1 0
BITMAP
03F0
0FF8
3FFE
7C1E
780F
F80F
F000
F000
F07F
F07F
F07F
F807
780F
7E1F
3FFF
1FFB
03E3
ENDCHAR
STARTCHAR H
ENCODING 72
SWIDTH 741 0
DWIDTH 18 0
BBX 14 17 2 0
BITMAP
F03C
F03C
F03C
F03C
F03C
F03C
F03C
FFFC
FFFC
FFFC
F03C
F03C
F03C
F03C
F03C
F03C
F03C
ENDCHAR
STARTCHAR I
ENCODING 73
SWIDTH 295 0
DWIDTH 8 0
BBX 4 17 2 0
BITMAP
F0
F0
F0
F0
F0
F0
F0
F0
F0
F0
F0
F0
F0
F0
F0
F0
F0
ENDCHAR
STARTCHAR J
ENCODING 74
SWIDTH 556 0
DWIDTH 13 0
BBX 11 17 1 0
BITMAP
01E0
01E0
01E0
01E0
01E0
01E0
01E0
01E0
01E0
01E0
E1E0
E1E0
E1E0
F3E0
7FC0
7FC0
1F00
ENDCHAR
STARTCHAR K
ENCODING 75
SWIDTH 722 0
DWIDTH 17 0
BBX 16 17 2 0
BITMAP
F03E
F07C
F0F8
F1F0
F3E0
F7C0
F780
FF80
FFC0
FFE0
F9E0
F0F0
F0F8
F07C
F03C
F03E
F01F
ENDCHAR
STARTCHAR L
ENCODING 76
SWIDTH 593 0
DWIDTH 14 0
BBX 12 17 2 0
BITMAP
F000
F000
F000
F000
F000
F000
F000
F000
F000
F000
F000
F000
F000
F000
FFF0
FFF0
FFF0
ENDCHAR
STARTCHAR M
ENCODING 77
SWIDTH 907 0
DWIDTH 22 0
BBX 19 17 1 0
BITMAP
FC07E0
FC07E0
FC07E0
FE0FE0
FE0FE0
FE0FE0
F71DE0
F71DE0
F71DE0
F3B9E0
F3B9E0
F3F9E0
F1F1E0
F1F1E0
F1F1E0
F0E1E0
F0E1E0
ENDCHAR
STARTCHAR N
ENCODING 78
SWIDTH 741 0
DWIDTH 18 0
BBX 15 17 1 0
BITMAP
F01E
F81E
F81E
FC1E
FE1E
FE1E
F71E
F79E
F39E
F3DE
F1DE
F0FE
F0FE
F07E
F03E
F03E
F01E
ENDCHAR
STARTCHAR O
ENCODING 79
SWIDTH 778 0
DWIDTH 19 0
BBX 17 17 1 0
BITMAP
07F000
1FFC00
3FFE00
7C1F00
780F00
F80F80
F00780
F00780
F00780
F00780
F00780
F80F80
780F00
7C1F00
3FFE00
1FFC00
07F000
ENDCHAR
STARTCHAR P
ENCODING 80
SWIDTH 667 0
DWIDTH 16 0
BBX 13 17 2 0
BITMAP
FFC0
FFF0
FFF0
F0F8
F078
F078
F078
F0F8
FFF0
FFF0
FFC0
F000
F000
F000
F000
F000
F000
ENDCHAR
STARTCHAR Q
ENCODING 81
SWIDTH 778 0
DWIDTH 19 0
BBX 17 19 1 -2
BITMAP
07F000
1FFC00
3FFE00
7C1E00
780F00
F80F00
F00780
F00780
F00780
F00780
F00780
F86F80
78FF00
7C3F00
3FFE00
1FFE00
07F700
000380
000100
ENDCHAR
STARTCHAR R
ENCODING 82
SWIDTH 722 0
DWIDTH 17 0
BBX 14 17 2 0
BITMAP
FFE0
FFF8
FFFC
F07C
F03C
F03C
F07C
FFF8
FFE0
FFF8
F078
F038
F03C
F03C
F03C
F03C
F03C
ENDCHAR
STARTCHAR S
ENCODING 83
SWIDTH 649 0
DWIDTH 17 0
BBX 16 18 0 0
BITMAP
07E0
1FF8
3FFC
7C3E
781E
781E
7C00
3FC0
1FF8
07FE
00FF
001F
F00F
F00F
7C1F
7FFE
3FFC
07F0
ENDCHAR
STARTCHAR T
ENCODING 84
SWIDTH 611 0
DWIDTH 15 0
BBX 14 17 0 0
BITMAP
FFFC
FFFC
FFFC
0780
0780
0780
0780
0780
0780
0780
0780
0780
0780
0780
0780
0780
0780
ENDCHAR
STARTCHAR U
ENCODING 85
SWIDTH 741 0
DWIDTH 18 0
BBX 15 17 1 0
BITMAP
F01E
F01E
F01E
F01E
F01E
F01E
F01E
F01E
F01E
F01E
F01E
F01E
F01E
783C
7FFC
3FF8
0FE0
ENDCHAR
STARTCHAR V
ENCODING 86
SWIDTH 630 0
DWIDTH 15 0
BBX 15 17 0 0
BITMAP
F01E
F01E
781C
783C
783C
3838
3C78
3C78
1C70
1EF0
1EF0
0EE0
0FE0
0FE0
07C0
07C0
07C0
ENDCHAR
STARTCHAR W
ENCODING 87
SWIDTH 944 0
DWIDTH 23 0
BBX 23 17 0 0
BITMAP
F0781E
F07C1C
707C3C
787C3C
78FC38
38FE38
38EE78
3CEE78
3DEE70
1DCF70
1DC7F0
1FC7E0
1FC7E0
0F87E0
0F83E0
0F83C0
0F83C0
ENDCHAR
STARTCHAR X
ENCODING 88
SWIDTH 667 0
DWIDTH 16 0
BBX 16 17 0 0
BITMAP
F81F
7C1E
3C3C
1E78
1E78
0FF0
07E0
07E0
03C0
07E0
0FF0
0FF0
1E78
3C7C
3C3C
781E
F01F
ENDCHAR
STARTCHAR Y
ENCODING 89
SWIDTH 667 0
DWIDTH 16 0
BBX 16 17 0 0
BITMAP
F00F
781E
781E
3C3C
3E7C
1E78
0FF0
0FF0
07E0
07E0
03C0
03C0
03C0
03C0
03C0
03C0
03C0
ENDCHAR
STARTCHAR Z
ENCODING 90
SWIDTH 648 0
DWIDTH 16 0
BBX 14 17 1 0
BITMAP
FFFC
FFFC
FFFC
00F8
01F8
01F0
03E0
07C0
0F80
1F00
3E00
3E00
7C00
F800
FFFC
FFFC
FFFC
ENDCHAR
STARTCHAR bracketleft
ENCODING 91
SWIDTH 333 0
DWIDTH 8 0
BBX 6 22 2 -4
BITMAP
FC
FC
FC
E0
E0
E0
E0
E0
E0
E0
E0
E0
E0
E0
E0
E0
E0
E0
E0
FC
FC
FC
ENDCHAR
STARTCHAR backslash
ENCODING 92
SWIDTH 371 0
DWIDTH 9 0
BBX 9 18 0 0
BITMAP
E000
E000
6000
7000
7000
3800
3800
1800
1C00
1C00
0C00
0E00
0E00
0700
0700
0700
0380
0380
ENDCHAR
STARTCHAR bracketright
ENCODING 93
SWIDTH 333 0
DWIDTH 8 0
BBX 6 22 0 -4
BITMAP
FC
FC
FC
1C
1C
1C
1C
1C
1C
1C
1C
1C
1C
1C
1C
1C
1C
1C
1C
FC
FC
FC
ENDCHAR
STARTCHAR asciicircum
ENCODING 94
SWIDTH 600 0
DWIDTH 14 0
BBX 12 9 1 8
BITMAP
0F00
0F80
1F80
1D80
19C0
38C0
30E0
70E0
F070
ENDCHAR
STARTCHAR underscore
ENCODING 95
SWIDTH 500 0
DWIDTH 12 0
BBX 12 1 0 -3
BITMAP
FFF0
ENDCHAR
STARTCHAR grave
ENCODING 96
SWIDTH 259 0
DWIDTH 6 0
BBX 6 3 -1 14
BITMAP
F0
38
1C
ENDCHAR
STARTCHAR a
ENCODING 97
SWIDTH 574 0
DWIDTH 13 0
BBX 11 13 1 0
BITMAP
1F80
7FC0
F0E0
E0E0
00E0
0FE0
7FE0
FCE0
E0E0
E0E0
E1E0
7FE0
3EE0
ENDCHAR
STARTCHAR b
ENCODING 98
SWIDTH 611 0
DWIDTH 15 0
BBX 13 18 1 -1
BITMAP
E000
E000
E000
E000
E7C0
FFE0
FFF0
F8F0
F078
E038
E038
E038
E038
F078
F8F0
FFF0
EFE0
07C0
ENDCHAR
STARTCHAR c
ENCODING 99
SWIDTH 574 0
DWIDTH 14 0
BBX 12 14 1 -1
BITMAP
1F80
3FC0
7FE0
70E0
F0F0
E000
E000
E000
E070
F0F0
71E0
7FE0
3FC0
1F00
ENDCHAR
STARTCHAR d
ENCODING 100
SWIDTH 611 0
DWIDTH 15 0
BBX 12 18 1 -1
BITMAP
0070
0070
0070
0070
1E70
3FF0
7FF0
70F0
F0F0
E070
E070
E070
E070
F0F0
70F0
7FF0
3FF0
1F70
ENDCHAR
STARTCHAR e
ENCODING 101
SWIDTH 574 0
DWIDTH 14 0
BBX 12 14 1 -1
BITMAP
0F00
3FC0
7FE0
71E0
E0F0
E0F0
FFF0
FFF0
E000
E000
70F0
7FE0
3FC0
1F80
ENDCHAR
STARTCHAR f
ENCODING 102
SWIDTH 333 0
DWIDTH 8 0
BBX 8 17 0 0
BITMAP
0F
1F
3F
38
38
FE
FE
38
38
38
38
38
38
38
38
38
38
ENDCHAR
STARTCHAR g
ENCODING 103
SWIDTH 611 0
DWIDTH 15 0
BBX 12 18 1 -5
BITMAP
1E00
3F70
7FF0
70F0
E070
E070
E070
E070
E070
F0F0
7FF0
3FF0
1E70
0070
F070
78E0
7FE0
1F80
ENDCHAR
STARTCHAR h
ENCODING 104
SWIDTH 593 0
DWIDTH 14 0
BBX 12 17 1 0
BITMAP
E000
E000
E000
E000
E7C0
EFE0
FFF0
F0F0
E070
E070
E070
E070
E070
E070
E070
E070
E070
ENDCHAR
STARTCHAR i
ENCODING 105
SWIDTH 258 0
DWIDTH 6 0
BBX 3 17 2 0
BITMAP
E0
E0
E0
00
00
E0
E0
E0
E0
E0
E0
E0
E0
E0
E0
E0
E0
ENDCHAR
STARTCHAR j
ENCODING 106
SWIDTH 278 0
DWIDTH 7 0
BBX 5 21 0 -4
BITMAP
38
38
38
00
38
38
38
38
38
38
38
38
38
38
38
38
38
38
F8
F8
F0
ENDCHAR
STARTCHAR k
ENCODING 107
SWIDTH 574 0
DWIDTH 14 0
BBX 12 17 2 0
BITMAP
E000
E000
E000
E000
E000
E1E0
E380
E700
EE00
FE00
FF00
FF00
E780
E3C0
E3C0
E1E0
E1F0
ENDCHAR
STARTCHAR l
ENCODING 108
SWIDTH 258 0
DWIDTH 6 0
BBX 3 17 2 0
BITMAP
E0
E0
E0
E0
E0
E0
E0
E0
E0
E0
E0
E0
E0
E0
E0
E0
E0
ENDCHAR
STARTCHAR m
ENCODING 109
SWIDTH 906 0
DWIDTH 21 0
BBX 19 13 1 0
BITMAP
078F80
EFDFC0
FFFFE0
F1F1E0
E0E0E0
E0E0E0
E0E0E0
E0E0E0
E0E0E0
E0E0E0
E0E0E0
E0E0E0
E0E0E0
ENDCHAR
STARTCHAR n
ENCODING 110
SWIDTH 593 0
DWIDTH 14 0
BBX 12 13 1 0
BITMAP
07C0
EFE0
FFF0
F0F0
E070
E070
E070
E070
E070
E070
E070
E070
E070
ENDCHAR
STARTCHAR o
ENCODING 111
SWIDTH 611 0
DWIDTH 15 0
BBX 13 14 1 -1
BITMAP
0F80
3FE0
7FF0
78F0
F078
E038
E038
E038
E038
F078
78F0
7FF0
3FE0
0F80
ENDCHAR
STARTCHAR p
ENCODING 112
SWIDTH 611 0
DWIDTH 15 0
BBX 13 17 1 -4
BITMAP
0780
EFE0
FFF0
F8F0
F078
E038
E038
E038
E038
F078
F8F0
FFF0
EFE0
E780
E000
E000
E000
ENDCHAR
STARTCHAR q
ENCODING 113
SWIDTH 611 0
DWIDTH 15 0
BBX 12 17 1 -4
BITMAP
1E00
3FF0
7FF0
70F0
F0F0
E070
E070
E070
E070
E0F0
70F0
7FF0
3FF0
1E70
0070
0070
0070
ENDCHAR
STARTCHAR r
ENCODING 114
SWIDTH 389 0
DWIDTH 9 0
BBX 8 13 1 0
BITMAP
E7
EF
FF
F8
F0
E0
E0
E0
E0
E0
E0
E0
E0
ENDCHAR
STARTCHAR s
ENCODING 115
SWIDTH 537 0
DWIDTH 13 0
BBX 12 13 1 0
BITMAP
3F00
7FC0
E1E0
E0E0
F800
FF80
7FE0
0FF0
01F0
E0F0
F1F0
7FE0
1F80
ENDCHAR
STARTCHAR t
ENCODING 116
SWIDTH 352 0
DWIDTH 8 0
BBX 8 16 0 0
BITMAP
38
38
38
38
FF
FF
38
38
38
38
38
38
38
3F
3F
1F
ENDCHAR
STARTCHAR u
ENCODING 117
SWIDTH 593 0
DWIDTH 14 0
BBX 12 12 1 0
BITMAP
E070
E070
E070
E070
E070
E070
E070
E070
F0F0
FFF0
7F70
3E00
ENDCHAR
STARTCHAR v
ENCODING 118
SWIDTH 520 0
DWIDTH 12 0
BBX 12 12 0 0
BITMAP
F070
70F0
78E0
78E0
38E0
39C0
3DC0
1DC0
1F80
1F80
0F80
0F00
ENDCHAR
STARTCHAR w
ENCODING 119
SWIDTH 814 0
DWIDTH 20 0
BBX 19 12 0 0
BITMAP
F0F0E0
70F1E0
70F1E0
79F1C0
39F9C0
39BBC0
3FBB80
1F9B80
1F9F80
1F1F00
0F0F00
0F0F00
ENDCHAR
STARTCHAR x
ENCODING 120
SWIDTH 537 0
DWIDTH 13 0
BBX 13 12 0 0
BITMAP
F8F0
78E0
3DE0
1FC0
0F80
0F00
0F80
1FC0
3DC0
3DE0
78F0
F078
ENDCHAR
STARTCHAR y
ENCODING 121
SWIDTH 519 0
DWIDTH 12 0
BBX 13 16 0 -4
BITMAP
F078
F070
70F0
78E0
38E0
39C0
3DC0
1DC0
1F80
0F80
0F80
0F00
0F00
7E00
7E00
7C00
ENDCHAR
STARTCHAR z
ENCODING 122
SWIDTH 519 0
DWIDTH 12 0
BBX 11 13 1 0
BITMAP
FFC0
FFC0
FFC0
03C0
0780
0F00
1E00
3C00
7800
F000
FFE0
FFE0
FFE0
ENDCHAR
STARTCHAR braceleft
ENCODING 123
SWIDTH 333 0
DWIDTH 8 0
BBX 8 22 0 -4
BITMAP
1F
3F
3F
38
38
38
38
38
38
78
F0
F0
78
38
38
38
38
38
38
3F
3F
1F
ENDCHAR
STARTCHAR bar
ENCODING 124
SWIDTH 223 0
DWIDTH 5 0
BBX 3 24 1 -5
BITMAP
E0
E0
E0
E0
E0
E0
E0
E0
E0
E0
E0
E0
E0
E0
E0
E0
E0
E0
E0
E0
E0
E0
E0
E0
ENDCHAR
STARTCHAR braceright
ENCODING 125
SWIDTH 333 0
DWIDTH 8 0
BBX 8 22 0 -4
BITMAP
F8
FC
FC
1C
1C
1C
1C
1C
1C
1E
0F
0F
1E
1C
1C
1C
1C
1C
1C
FC
FC
F8
ENDCHAR
STARTCHAR asciitilde
ENCODING 126
SWIDTH 600 0
DWIDTH 14 0
BBX 11 4 2 4
BITMAP
7840
FFE0
FFC0
8780
ENDCHAR
ENDFONT
